<mxfile host="drawio-plugin" modified="2021-06-09T13:04:34.663Z" agent="5.0 (Windows NT 6.2; Win64; x64) AppleWebKit/537.36 (KHTML, like Gecko) Chrome/87.0.4280.141 Safari/537.36" etag="WVoXhI9UkGcedaNM88cK" version="14.6.6" type="embed"><diagram id="RrnGyhTox1kCKPTknkRC" name="Seite-1"><mxGraphModel dx="2771" dy="703" grid="1" gridSize="10" guides="1" tooltips="1" connect="1" arrows="1" fold="1" page="0" pageScale="1" pageWidth="827" pageHeight="1169" math="0" shadow="0"><root><mxCell id="0"/><mxCell id="1" parent="0"/><mxCell id="rid1xrD-9KdfzVZvJYU5-43" value="" style="group;fontSize=10;fillColor=#2a2a2a;gradientColor=#ffffff;dashed=1;" parent="1" vertex="1" connectable="0"><mxGeometry x="-2360" y="-50" width="390" height="433.33" as="geometry"/></mxCell><mxCell id="rid1xrD-9KdfzVZvJYU5-9" value="HPI Schul-Cloud &lt;br style=&quot;font-size: 10px;&quot;&gt;&lt;b style=&quot;font-size: 10px;&quot;&gt;Server&lt;/b&gt;" style="rounded=0;whiteSpace=wrap;html=1;fontSize=10;align=left;verticalAlign=top;strokeColor=none;fillColor=#F2F2F2;" parent="rid1xrD-9KdfzVZvJYU5-43" vertex="1"><mxGeometry y="52" width="390" height="378" as="geometry"/></mxCell><mxCell id="rid1xrD-9KdfzVZvJYU5-10" value="Logic &lt;br style=&quot;font-size: 10px;&quot;&gt;Layer" style="rounded=0;whiteSpace=wrap;html=1;align=left;spacingLeft=6;strokeColor=none;fillColor=#BCE7FF;fontSize=10;" parent="rid1xrD-9KdfzVZvJYU5-43" vertex="1"><mxGeometry x="26" y="203.6651" width="338" height="77.9994" as="geometry"/></mxCell><mxCell id="rid1xrD-9KdfzVZvJYU5-11" value="Service&lt;br style=&quot;font-size: 10px;&quot;&gt;Layer" style="rounded=0;whiteSpace=wrap;html=1;align=left;spacingLeft=6;strokeColor=none;fillColor=#EED9F9;fontSize=10;" parent="rid1xrD-9KdfzVZvJYU5-43" vertex="1"><mxGeometry x="26" y="116.9991" width="338" height="77.9994" as="geometry"/></mxCell><mxCell id="rid1xrD-9KdfzVZvJYU5-12" value="Data&lt;br style=&quot;font-size: 10px;&quot;&gt;Access&lt;br style=&quot;font-size: 10px;&quot;&gt;Layer" style="rounded=0;whiteSpace=wrap;html=1;align=left;spacingLeft=6;strokeColor=none;fillColor=#FFD6DB;fontSize=10;" parent="rid1xrD-9KdfzVZvJYU5-43" vertex="1"><mxGeometry x="26" y="291.19776" width="338" height="64.13284" as="geometry"/></mxCell><mxCell id="rid1xrD-9KdfzVZvJYU5-13" value="Component A" style="rounded=0;whiteSpace=wrap;html=1;align=center;opacity=20;fillColor=#330000;labelPosition=center;verticalLabelPosition=middle;verticalAlign=top;fontStyle=1;fontSize=10;strokeColor=none;" parent="rid1xrD-9KdfzVZvJYU5-43" vertex="1"><mxGeometry x="69.33333333333334" y="82.3327" width="121.33333333333334" height="290.3311" as="geometry"/></mxCell><mxCell id="rid1xrD-9KdfzVZvJYU5-14" style="edgeStyle=orthogonalEdgeStyle;rounded=0;orthogonalLoop=1;jettySize=auto;html=1;exitX=0.5;exitY=1;exitDx=0;exitDy=0;fontSize=10;" parent="rid1xrD-9KdfzVZvJYU5-43" edge="1"><mxGeometry relative="1" as="geometry"><mxPoint x="189.8" y="273.19786" as="sourcePoint"/><mxPoint x="189.8" y="273.19786" as="targetPoint"/></mxGeometry></mxCell><mxCell id="rid1xrD-9KdfzVZvJYU5-16" value="Service A" style="rounded=0;whiteSpace=wrap;html=1;align=center;fillColor=#333333;fontColor=#FFFFFF;fontSize=10;strokeColor=none;" parent="rid1xrD-9KdfzVZvJYU5-43" vertex="1"><mxGeometry x="78" y="160.3321" width="104" height="25.9998" as="geometry"/></mxCell><mxCell id="rid1xrD-9KdfzVZvJYU5-17" style="edgeStyle=orthogonalEdgeStyle;rounded=0;orthogonalLoop=1;jettySize=auto;html=1;entryX=0.5;entryY=0;entryDx=0;entryDy=0;fontSize=10;" parent="rid1xrD-9KdfzVZvJYU5-43" source="rid1xrD-9KdfzVZvJYU5-18" target="rid1xrD-9KdfzVZvJYU5-16" edge="1"><mxGeometry relative="1" as="geometry"/></mxCell><mxCell id="rid1xrD-9KdfzVZvJYU5-18" value="Rest API A" style="rounded=0;whiteSpace=wrap;html=1;align=center;fillColor=#333333;fontColor=#FFFFFF;fontSize=10;strokeColor=none;" parent="rid1xrD-9KdfzVZvJYU5-43" vertex="1"><mxGeometry x="78" y="125.6657" width="104" height="17.333199999999998" as="geometry"/></mxCell><mxCell id="rid1xrD-9KdfzVZvJYU5-20" value="A UserCase(s)" style="rounded=0;whiteSpace=wrap;html=1;align=center;fillColor=#333333;fontColor=#FFFFFF;fontSize=10;strokeColor=none;" parent="rid1xrD-9KdfzVZvJYU5-43" vertex="1"><mxGeometry x="78" y="246.9981" width="104" height="25.9998" as="geometry"/></mxCell><mxCell id="rid1xrD-9KdfzVZvJYU5-21" style="edgeStyle=orthogonalEdgeStyle;rounded=0;orthogonalLoop=1;jettySize=auto;html=1;fontSize=10;" parent="rid1xrD-9KdfzVZvJYU5-43" source="rid1xrD-9KdfzVZvJYU5-22" target="rid1xrD-9KdfzVZvJYU5-20" edge="1"><mxGeometry relative="1" as="geometry"/></mxCell><mxCell id="rid1xrD-9KdfzVZvJYU5-22" value="A UseCase Facade" style="rounded=0;whiteSpace=wrap;html=1;align=center;fillColor=#333333;fontColor=#FFFFFF;fontSize=10;strokeColor=none;" parent="rid1xrD-9KdfzVZvJYU5-43" vertex="1"><mxGeometry x="78" y="212.33169999999998" width="104" height="17.333199999999998" as="geometry"/></mxCell><mxCell id="rid1xrD-9KdfzVZvJYU5-15" style="edgeStyle=orthogonalEdgeStyle;rounded=0;orthogonalLoop=1;jettySize=auto;html=1;fontSize=10;" parent="rid1xrD-9KdfzVZvJYU5-43" source="rid1xrD-9KdfzVZvJYU5-16" target="rid1xrD-9KdfzVZvJYU5-22" edge="1"><mxGeometry relative="1" as="geometry"/></mxCell><mxCell id="rid1xrD-9KdfzVZvJYU5-24" value="A Repository &amp;amp; User Entities" style="rounded=0;whiteSpace=wrap;html=1;align=center;fillColor=#333333;fontColor=#FFFFFF;fontSize=10;strokeColor=none;" parent="rid1xrD-9KdfzVZvJYU5-43" vertex="1"><mxGeometry x="78" y="310.26428" width="104" height="25.9998" as="geometry"/></mxCell><mxCell id="rid1xrD-9KdfzVZvJYU5-19" style="edgeStyle=orthogonalEdgeStyle;rounded=0;orthogonalLoop=1;jettySize=auto;html=1;fontSize=10;" parent="rid1xrD-9KdfzVZvJYU5-43" source="rid1xrD-9KdfzVZvJYU5-20" target="rid1xrD-9KdfzVZvJYU5-24" edge="1"><mxGeometry relative="1" as="geometry"/></mxCell><mxCell id="rid1xrD-9KdfzVZvJYU5-31" style="rounded=0;orthogonalLoop=1;jettySize=auto;html=1;fontSize=10;fontColor=#FFFFFF;" parent="rid1xrD-9KdfzVZvJYU5-43" source="rid1xrD-9KdfzVZvJYU5-32" target="rid1xrD-9KdfzVZvJYU5-18" edge="1"><mxGeometry relative="1" as="geometry"/></mxCell><mxCell id="rid1xrD-9KdfzVZvJYU5-32" value="HPI Clients" style="rounded=0;whiteSpace=wrap;html=1;align=center;fillColor=#333333;fontColor=#FFFFFF;fontSize=10;" parent="rid1xrD-9KdfzVZvJYU5-43" vertex="1"><mxGeometry x="77.99999999999999" y="10" width="104" height="25.9998" as="geometry"/></mxCell><mxCell id="rid1xrD-9KdfzVZvJYU5-35" value="Database" style="shape=cylinder2;whiteSpace=wrap;html=1;boundedLbl=1;backgroundOutline=1;size=6;rounded=0;fillColor=#333333;fontSize=10;fontColor=#FFFFFF;align=center;strokeColor=#EBEBEB;verticalAlign=middle;spacingTop=6;" parent="rid1xrD-9KdfzVZvJYU5-43" vertex="1"><mxGeometry x="86.66666666666667" y="389.997" width="86.66666666666667" height="34.666399999999996" as="geometry"/></mxCell><mxCell id="rid1xrD-9KdfzVZvJYU5-23" style="rounded=0;orthogonalLoop=1;jettySize=auto;html=1;fontSize=10;fontColor=#FFFFFF;" parent="rid1xrD-9KdfzVZvJYU5-43" source="rid1xrD-9KdfzVZvJYU5-24" target="rid1xrD-9KdfzVZvJYU5-35" edge="1"><mxGeometry relative="1" as="geometry"/></mxCell><mxCell id="2" value="A.repo.integration.ts" style="shape=document;whiteSpace=wrap;html=1;boundedLbl=1;gradientColor=#808080;" vertex="1" parent="rid1xrD-9KdfzVZvJYU5-43"><mxGeometry x="200" y="310" width="150" height="36.13" as="geometry"/></mxCell><mxCell id="30" value="A.uc.spec.ts" style="shape=document;whiteSpace=wrap;html=1;boundedLbl=1;gradientColor=#808080;" vertex="1" parent="rid1xrD-9KdfzVZvJYU5-43"><mxGeometry x="200" y="229.66" width="150" height="30" as="geometry"/></mxCell><mxCell id="31" value="A.e2e-spec.ts" style="shape=document;whiteSpace=wrap;html=1;boundedLbl=1;gradientColor=#666666;" vertex="1" parent="rid1xrD-9KdfzVZvJYU5-43"><mxGeometry x="200" y="125.67" width="150" height="34.33" as="geometry"/></mxCell><mxCell id="32" value="A.mapper.spec.ts" style="shape=document;whiteSpace=wrap;html=1;boundedLbl=1;gradientColor=#666666;" vertex="1" parent="rid1xrD-9KdfzVZvJYU5-43"><mxGeometry x="200" y="172.33" width="150" height="37.67" as="geometry"/></mxCell></root></mxGraphModel></diagram></mxfile>